<svg xmlns="http://www.w3.org/2000/svg" width="160.604" height="132" viewBox="0 0 160.604 132"><defs><style>.a{opacity:0.48;}.b{fill:#f2f2f2;}.c{fill:#fbfbfb;}.d{fill:#e0e0e0;}.e{fill:#e6e6e6;}.f{fill:#eceff1;}.g{opacity:0.5;}.h{fill:#969696;}</style></defs><g class="a" transform="translate(-608 -846)"><circle class="b" cx="66" cy="66" r="66" transform="translate(622.4 846)"/><g transform="translate(608 853.68)"><g transform="translate(0 0)"><rect class="c" width="37.366" height="55.021" transform="translate(0 34.315) rotate(-33.78)"/><path class="d" d="M231.162,273.846l-.352,2.181L215.37,273.8l.352-2.181Z" transform="translate(-185.562 -216.737)"/><path class="d" d="M237.908,251.55l2.214.318-2.455,15.2-2.217-.321Z" transform="translate(-200.083 -202.223)"/><path class="e" d="M156.471,181.749c.022.03-3.089,2.154-6.951,4.733s-7.009,4.65-7.031,4.617,3.089-2.154,6.951-4.736S156.435,181.716,156.471,181.749Z" transform="translate(-132.855 -151.743)"/><path class="e" d="M173.6,171.389c.022.033-5.154,3.532-11.559,7.817s-11.626,7.731-11.642,7.7,5.149-3.535,11.562-7.82S173.58,171.356,173.6,171.389Z" transform="translate(-138.576 -144.251)"/><path class="e" d="M181.872,183.749c.022.033-5.154,3.535-11.559,7.82s-11.626,7.731-11.642,7.7,5.154-3.532,11.562-7.82S181.85,183.716,181.872,183.749Z" transform="translate(-144.556 -153.19)"/><path class="e" d="M190.185,196.119c.022.033-5.154,3.535-11.559,7.817S167,211.67,167,211.637s5.151-3.535,11.559-7.82S190.163,196.086,190.185,196.119Z" transform="translate(-150.581 -162.135)"/><path class="e" d="M198.389,208.489c.022.033-5.154,3.532-11.559,7.817s-11.626,7.731-11.64,7.7,5.16-3.532,11.573-7.817S198.389,208.456,198.389,208.489Z" transform="translate(-156.504 -171.081)"/><rect class="c" width="31.382" height="46.207" transform="translate(108.829 61.631) rotate(-33.78)"/><path class="e" d="M604.545,360.3l-.3,1.832-12.968-1.868.3-1.832Z" transform="translate(-457.417 -279.518)"/><path class="e" d="M610.215,341.57l1.86.269L610.013,354.6l-1.863-.268Z" transform="translate(-469.618 -267.325)"/><path class="e" d="M541.775,283c.022.033-2.588,1.819-5.832,3.986s-5.89,3.9-5.912,3.875,2.591-1.816,5.832-3.986S541.752,282.951,541.775,283Z" transform="translate(-413.121 -224.965)"/><path class="e" d="M556.24,274.249c.022.033-4.321,2.978-9.688,6.574s-9.76,6.491-9.782,6.458,4.321-2.978,9.688-6.577S556.21,274.216,556.24,274.249Z" transform="translate(-417.996 -218.638)"/><path class="e" d="M563.19,284.629c.022.033-4.321,2.978-9.688,6.577s-9.76,6.488-9.782,6.455,4.307-2.965,9.688-6.563S563.174,284.6,563.19,284.629Z" transform="translate(-423.022 -226.145)"/><path class="e" d="M570.13,295c.022.033-4.324,2.978-9.688,6.577s-9.76,6.488-9.782,6.455,4.321-2.976,9.688-6.577S570.111,294.972,570.13,295Z" transform="translate(-428.041 -233.645)"/><path class="e" d="M577.13,305.409c.022.033-4.321,2.976-9.688,6.574s-9.76,6.488-9.782,6.458,4.321-2.978,9.688-6.577S577.094,305.376,577.13,305.409Z" transform="translate(-433.103 -241.173)"/><rect class="c" width="32.276" height="47.525" transform="translate(65.186 0) rotate(28.14)"/><path class="e" d="M330.729,199.262l-1.8.617L324.34,187.21l1.808-.62Z" transform="translate(-264.368 -155.244)"/><path class="e" d="M324.544,199.53l.659,1.819-12.584,4.31-.659-1.819Z" transform="translate(-255.415 -164.602)"/><path class="e" d="M356.243,114.1c-.022.042-2.906-1.459-6.447-3.349s-6.389-3.46-6.367-3.5,2.909,1.459,6.45,3.349S356.265,114.055,356.243,114.1Z" transform="translate(-278.173 -97.864)"/><path class="e" d="M358.859,129.52c-.022.042-4.8-2.472-10.671-5.611s-10.61-5.719-10.588-5.76,4.8,2.469,10.668,5.611S358.881,129.478,358.859,129.52Z" transform="translate(-273.957 -105.747)"/><path class="e" d="M352.8,140.85c-.022.042-4.8-2.469-10.671-5.611s-10.61-5.719-10.588-5.76,4.8,2.472,10.668,5.611S352.821,140.808,352.8,140.85Z" transform="translate(-269.575 -113.941)"/><path class="e" d="M346.739,152.187c-.022.041-4.8-2.469-10.671-5.608s-10.61-5.711-10.588-5.76,4.8,2.469,10.668,5.608S346.761,152.145,346.739,152.187Z" transform="translate(-265.192 -122.142)"/><path class="e" d="M340.679,163.517c-.022.042-4.8-2.469-10.671-5.608s-10.613-5.719-10.588-5.76,4.8,2.469,10.668,5.608S340.7,163.476,340.679,163.517Z" transform="translate(-260.81 -130.336)"/></g><path class="f" d="M270.072,225.681,260.273,276,259,282.592l65.326-.316c2.934-.014,5.536-2.619,6.475-6.488l11.587-47.508c.717-2.937-.855-5.993-3.081-5.99l-66.135.069C271.733,222.356,270.443,223.718,270.072,225.681Z" transform="translate(-217.115 -181.062)"/><g class="g" transform="translate(41.886 41.228)"><path class="h" d="M270.072,225.681,260.273,276,259,282.592l65.326-.316c2.934-.014,5.536-2.619,6.475-6.488l11.587-47.508c.717-2.937-.855-5.993-3.081-5.99l-66.135.069C271.733,222.356,270.443,223.718,270.072,225.681Z" transform="translate(-259 -222.29)"/></g><path class="e" d="M255.6,247.942l-6.92-55.752a4.38,4.38,0,0,0-4.252-3.98l-15.169.047a4.152,4.152,0,0,0-3,1.329l-7.2,7.659-42.185.227a4.492,4.492,0,0,0-4.219,5.2l6.425,51.528a4.386,4.386,0,0,0,4.246,3.98l73.534-.147c8.188.169,8.971-2.248,8.971-2.248C256.436,257.86,255.6,247.956,255.6,247.942Z" transform="translate(-154.647 -156.415)"/><g class="g" transform="translate(47.665 62.603)"><path class="c" d="M301.46,318.824l-2.48,2.663L279.88,304.3l2.48-2.663Z" transform="translate(-279.88 -301.05)"/><path class="c" d="M299.974,299.51l2.74,2.466-17.281,18.56-2.743-2.466Z" transform="translate(-281.912 -299.51)"/></g></g></g></svg>